<svg version="1.1" viewBox="0 0 29.5 25.66" xmlns="http://www.w3.org/2000/svg">
  <path d="M21.85 0H7.64A7.64 7.64 0 0 0 0 7.64v7.06a7.65 7.65 0 0 0 7.64 7.65h5.48a1.65 1.65 0 0 1 1.42 2.51.52.52 0 0 0 .7.73 58.43 58.43 0 0 1 6.61-3.24c4-1.43 7.65-3.43 7.65-7.65V7.64A7.65 7.65 0 0 0 21.85 0z" fill="#409eff"/>
  <path d="M16.77 4.17h-.07a7.21 7.21 0 0 0-3.91 0h-.07a7.2 7.2 0 1 0 4 0zm3.05 10.59a11.85 11.85 0 0 0-1.42-.48 13.59 13.59 0 0 0 .38-2.77H21a6.14 6.14 0 0 1-1.18 3.25zm-4.62 2.57v-2.65a14 14 0 0 1 2.06.23 11.33 11.33 0 0 1-1 2.24 6.76 6.76 0 0 1-1.06.18zm-2-.18a13 13 0 0 1-.95-2.24 14.25 14.25 0 0 1 2.07-.23v2.65a6.88 6.88 0 0 1-1.14-.18zm-4.7-5.64h2.24a13.59 13.59 0 0 0 .38 2.77 12.64 12.64 0 0 0-1.43.48 6.32 6.32 0 0 1-1.21-3.25zm1.17-4.14a12.64 12.64 0 0 0 1.43.48 13.59 13.59 0 0 0-.38 2.77H8.48a6.32 6.32 0 0 1 1.19-3.25zM14.3 4.8v2.65a14.25 14.25 0 0 1-2.07-.23 12 12 0 0 1 1-2.24 5.84 5.84 0 0 1 1.07-.18zm2 .18a11.33 11.33 0 0 1 1 2.24 14 14 0 0 1-2.06.23V4.8a5.84 5.84 0 0 1 1.07.2zm-1.1 3.37a13.86 13.86 0 0 0 2.32-.27 12.72 12.72 0 0 1 .34 2.54H15.2zm-.9 0v2.27h-2.67A12 12 0 0 1 12 8.08a13.62 13.62 0 0 0 2.3.27zm-2.67 3.16h2.67v2.27A14.84 14.84 0 0 0 12 14a11.87 11.87 0 0 1-.37-2.49zm3.57 2.27v-2.27h2.66a12.72 12.72 0 0 1-.34 2.54 13.86 13.86 0 0 0-2.32-.27zm3.58-3.16a13.59 13.59 0 0 0-.38-2.77 11.85 11.85 0 0 0 1.42-.48A6.14 6.14 0 0 1 21 10.62zm.43-4c-.35.13-.7.25-1.05.35a13.64 13.64 0 0 0-.6-1.54 6.25 6.25 0 0 1 1.65 1.21zm-7.27-1.17a13.64 13.64 0 0 0-.6 1.55c-.36-.1-.71-.22-1.06-.35a6.37 6.37 0 0 1 1.66-1.2zm-1.66 10c.35-.13.7-.25 1.06-.35a15.8 15.8 0 0 0 .59 1.54 6.49 6.49 0 0 1-1.65-1.15zm7.28 1.19a13.64 13.64 0 0 0 .6-1.54c.35.1.7.22 1.05.35a6.49 6.49 0 0 1-1.65 1.23z" fill="#fff"/>
</svg>
